<svg width="34" height="55" viewBox="0 0 34 55" fill="none" xmlns="http://www.w3.org/2000/svg">
<path d="M16.8137 0C7.4596 0 0 7.45963 0 16.6953C0 16.8138 0 16.8137 0 16.9321C0 19.4187 0.592026 21.9052 1.65769 24.2734C1.77609 24.2734 16.8137 54.1119 16.8137 54.1119L31.8514 24.6286C32.917 22.2604 33.5091 19.6555 33.3907 16.9321C33.6275 7.57801 26.1678 0 16.8137 0ZM16.8137 26.7599C11.2486 26.7599 6.74916 22.2605 6.74916 16.6953C6.74916 11.1302 11.367 6.63078 16.8137 6.63078C22.3788 6.63078 26.8783 11.2486 26.8783 16.6953C26.8783 22.1421 22.4972 26.7599 16.8137 26.7599Z" fill="#31324C"/>
</svg>
